<?xml version="1.0" encoding="utf-8"?>
<!-- Generator: Adobe Illustrator 17.0.0, SVG Export Plug-In . SVG Version: 6.00 Build 0)  -->
<!DOCTYPE svg PUBLIC "-//W3C//DTD SVG 1.1//EN" "http://www.w3.org/Graphics/SVG/1.1/DTD/svg11.dtd">
<svg version="1.1" id="Layer_1" xmlns="http://www.w3.org/2000/svg" xmlns:xlink="http://www.w3.org/1999/xlink" x="0px" y="0px"
	 width="508px" height="645.79px" viewBox="0 0 508 645.79" enable-background="new 0 0 508 645.79" xml:space="preserve">
<g>
	<defs>
		<rect id="SVGID_1_" width="508" height="645.79"/>
	</defs>
	<clipPath id="SVGID_2_">
		<use xlink:href="#SVGID_1_"  overflow="visible"/>
	</clipPath>
	<path clip-path="url(#SVGID_2_)" fill="none" stroke="#000000" stroke-width="13" stroke-miterlimit="10" d="M482.324,639.29
		H25.676c-10.591,0-19.176-8.585-19.176-19.176V49.676C6.5,39.085,15.085,30.5,25.676,30.5h456.648
		c10.59,0,19.176,8.585,19.176,19.176v570.438C501.5,630.705,492.914,639.29,482.324,639.29z"/>
	
		<line clip-path="url(#SVGID_2_)" fill="none" stroke="#000000" stroke-width="13" stroke-miterlimit="10" x1="71.5" y1="138.363" x2="309.305" y2="138.363"/>
	
		<line clip-path="url(#SVGID_2_)" fill="none" stroke="#000000" stroke-width="13" stroke-miterlimit="10" x1="71.5" y1="172.176" x2="181.343" y2="172.176"/>
	
		<rect x="353.5" y="128.863" clip-path="url(#SVGID_2_)" fill="none" stroke="#000000" stroke-width="13" stroke-miterlimit="10" width="83" height="52.813"/>
	
		<line clip-path="url(#SVGID_2_)" fill="none" stroke="#000000" stroke-width="13" stroke-miterlimit="10" x1="71.5" y1="257.166" x2="309.305" y2="257.166"/>
	
		<line clip-path="url(#SVGID_2_)" fill="none" stroke="#000000" stroke-width="13" stroke-miterlimit="10" x1="71.5" y1="290.979" x2="181.343" y2="290.979"/>
	
		<rect x="353.5" y="247.666" clip-path="url(#SVGID_2_)" fill="none" stroke="#000000" stroke-width="13" stroke-miterlimit="10" width="83" height="52.813"/>
	
		<line clip-path="url(#SVGID_2_)" fill="none" stroke="#000000" stroke-width="13" stroke-miterlimit="10" x1="71.5" y1="375.926" x2="309.305" y2="375.926"/>
	
		<line clip-path="url(#SVGID_2_)" fill="none" stroke="#000000" stroke-width="13" stroke-miterlimit="10" x1="71.5" y1="409.739" x2="181.343" y2="409.739"/>
	
		<rect x="353.5" y="366.426" clip-path="url(#SVGID_2_)" fill="none" stroke="#000000" stroke-width="13" stroke-miterlimit="10" width="83" height="52.813"/>
	
		<line clip-path="url(#SVGID_2_)" fill="none" stroke="#000000" stroke-width="13" stroke-miterlimit="10" x1="71.5" y1="497.613" x2="309.305" y2="497.613"/>
	
		<line clip-path="url(#SVGID_2_)" fill="none" stroke="#000000" stroke-width="13" stroke-miterlimit="10" x1="71.5" y1="531.426" x2="181.343" y2="531.426"/>
	
		<rect x="353.5" y="488.113" clip-path="url(#SVGID_2_)" fill="none" stroke="#000000" stroke-width="13" stroke-miterlimit="10" width="83" height="52.813"/>
	<rect x="164" clip-path="url(#SVGID_2_)" width="180" height="61"/>
</g>
</svg>
